<?xml version="1.0" encoding="UTF-8"?>
<svg id="Layer_8" xmlns="http://www.w3.org/2000/svg" xmlns:xlink="http://www.w3.org/1999/xlink" version="1.1" viewBox="0 0 499.88 151.9">
  <!-- Generator: Adobe Illustrator 30.2.1, SVG Export Plug-In . SVG Version: 2.1.1 Build 1)  -->
  <defs>
    <style>
      .st0 {
        fill: url(#linear-gradient);
        stroke: #fff;
        stroke-linecap: round;
        stroke-linejoin: round;
        stroke-width: 3px;
      }
    </style>
    <linearGradient id="linear-gradient" x1="250.94" y1="146.84" x2="250.94" y2="8.19" gradientUnits="userSpaceOnUse">
      <stop offset=".05" stop-color="#fdf6f5"/>
      <stop offset=".16" stop-color="#82d2e8"/>
      <stop offset=".24" stop-color="#8bd5e9"/>
      <stop offset=".27" stop-color="#8ac6da"/>
      <stop offset=".32" stop-color="#879fb5"/>
      <stop offset=".34" stop-color="#8790a6"/>
      <stop offset=".58" stop-color="#959db2"/>
      <stop offset=".61" stop-color="#989fb4"/>
      <stop offset=".64" stop-color="#abb0c1"/>
      <stop offset=".72" stop-color="#dcdfe6"/>
      <stop offset=".76" stop-color="#fff"/>
      <stop offset="1" stop-color="#fff"/>
    </linearGradient>
  </defs>
  <path class="st0" d="M32.28,49.28v20.68h50.22v18.71h-50.22v36.44H12.92V30.62h69.58v18.66h-50.22ZM201.36,76.55c0,29.18-24.2,52.84-54.06,52.84-9.42,0-18.28-2.36-26-6.51l-18.9,23.96h-.01v-24.8l6.53-8.28c-9.69-9.55-15.68-22.69-15.68-37.21,0-29.18,24.2-52.84,54.06-52.84,9.86,0,19.09,2.59,27.05,7.1l17.85-22.63.04.03v24.74l-5.72,7.25c9.19,9.47,14.84,22.26,14.84,36.34ZM120.7,98.82l41.87-53.08c-4.62-2.19-9.8-3.42-15.28-3.42-19.34,0-35.02,15.33-35.02,34.23,0,8.5,3.18,16.28,8.43,22.26ZM182.32,76.55c0-8.07-2.86-15.48-7.65-21.34l-41.53,52.65c4.33,1.87,9.11,2.92,14.15,2.92,19.34,0,35.02-15.33,35.02-34.23ZM278.85,87.31c9.15-2.95,15.78-11.53,15.78-21.67v-12.26c0-12.57-10.19-22.76-22.76-22.76h-56.06v17.8h.55s0,.05-.01.07h27.1c.13-.02.26-.05.39-.07h22.19v-.06c5.44.41,9.73,4.95,9.73,10.49v1.33c0,5.54-4.29,10.08-9.73,10.49v-.06h-22.19c-.13-.02-.26-.05-.39-.07h-27.1s0,.05.01.07h-.55v54.16h18.66v-36.37h22.33l19.83,36.37h23.54l-21.31-37.46ZM351.79,68.36l-10.74,18.66h36.24v19.08h-33.75c-9.57-1.9-16.93-13.58-16.93-27.7,0-15.46,8.81-28.99,19.68-28.99h34.63s-.06-.09-.09-.14h12.94v-18.66h-50.22v.21c-20.95,2.21-37.35,22.34-37.35,46.87s16.4,44.66,37.35,46.87v.21h52.41v-56.41h-44.17ZM488.92,105.75h-55.27v-20.46h53.31v-18.66h-53.31v-17.35h53.31v-18.66h-72.49v54.68c-.01.26-.04.51-.04.77v18.9c0,10.74,8.7,19.44,19.44,19.44h55.09v-18.66h-.04Z"/>
</svg>